<svg width="16" height="16" viewBox="0 0 16 16" fill="none" xmlns="http://www.w3.org/2000/svg">
    <path d="M14 3v7.5a.508.508 0 0 1-.2.4c-.944.713-1.85.963-2.713.963-1.175 0-2.268-.47-3.287-.9-1.669-.72-3.119-1.338-4.8-.207V13.5a.5.5 0 0 1-1 0V2.963c0-.01.001-.018.006-.026v-.024c0-.007.007-.013.007-.025 0-.013.006-.013.006-.02 0-.006.006-.018.006-.024 0-.006.006-.013.006-.019s.006-.019.013-.025a.05.05 0 0 1 .012-.025c0-.006.006-.012.006-.019l.013-.025c.006-.006.012-.012.012-.018l.02-.02.012-.018.018-.019.013-.018.019-.013.025-.019H2.2c2.231-1.675 4.231-.818 5.994-.062 1.762.756 3.237 1.387 5.006.062A.5.5 0 0 1 14 3z" fill="#B7B7B7"/>
</svg>
