<svg width="20" height="21" viewBox="0 0 20 21" fill="none" xmlns="http://www.w3.org/2000/svg">
    <path d="M16.667 7.167h-2.5V3.833H2.5c-.917 0-1.667.75-1.667 1.667v9.167H2.5c0 1.383 1.117 2.5 2.5 2.5s2.5-1.117 2.5-2.5h5c0 1.383 1.117 2.5 2.5 2.5s2.5-1.117 2.5-2.5h1.667V10.5l-2.5-3.333zM5 15.917c-.692 0-1.25-.559-1.25-1.25 0-.692.558-1.25 1.25-1.25s1.25.558 1.25 1.25c0 .691-.558 1.25-1.25 1.25zm11.25-7.5 1.633 2.083h-3.716V8.417h2.083zm-1.25 7.5c-.692 0-1.25-.559-1.25-1.25 0-.692.558-1.25 1.25-1.25s1.25.558 1.25 1.25c0 .691-.558 1.25-1.25 1.25z" fill="#fff"/>
</svg>
