<svg width="24" height="24" viewBox="0 0 24 24" fill="none" xmlns="http://www.w3.org/2000/svg">
    <path d="M12 13.065 8.274 16.79a.721.721 0 0 1-.533.21.721.721 0 0 1-.532-.21A.721.721 0 0 1 7 16.26c0-.216.07-.393.21-.533L10.934 12 7.21 8.274A.721.721 0 0 1 7 7.742c0-.216.07-.393.21-.533.139-.14.316-.209.531-.209.216 0 .393.07.533.21L12 10.934l3.726-3.726c.14-.14.317-.209.533-.209.215 0 .392.07.532.21.14.139.209.316.209.532 0 .215-.07.393-.21.532L13.066 12l3.726 3.726c.14.14.209.317.209.533 0 .215-.07.393-.21.532a.721.721 0 0 1-.531.21.721.721 0 0 1-.533-.21L12 13.065z" fill="#B7B7B7"/>
</svg>
