<svg width="20" height="20" viewBox="0 0 20 20" fill="none" xmlns="http://www.w3.org/2000/svg">
    <path d="M10 16.667c-1.861 0-3.438-.646-4.73-1.938-1.29-1.292-1.937-2.868-1.937-4.73 0-1.86.646-3.437 1.938-4.728C6.562 3.979 8.139 3.333 10 3.333c.958 0 1.875.198 2.75.594A6.348 6.348 0 0 1 15 5.625V4.167c0-.237.08-.435.24-.595.16-.159.357-.239.593-.239s.434.08.594.24c.16.16.24.357.24.594v4.166c0 .236-.08.434-.24.594a.804.804 0 0 1-.594.24h-4.166a.804.804 0 0 1-.594-.24.804.804 0 0 1-.24-.594c0-.236.08-.434.24-.594.16-.16.357-.24.594-.24h2.666a4.864 4.864 0 0 0-1.822-1.832A4.942 4.942 0 0 0 10 5c-1.389 0-2.57.486-3.542 1.458S5 8.611 5 10c0 1.389.486 2.57 1.458 3.542C7.431 14.514 8.611 15 10 15c.958 0 1.844-.254 2.657-.76a4.763 4.763 0 0 0 1.822-2.032.906.906 0 0 1 .344-.385.883.883 0 0 1 .49-.156c.319 0 .559.11.719.333.16.222.176.472.051.75a6.496 6.496 0 0 1-2.437 2.843A6.535 6.535 0 0 1 10 16.667z" fill="#fff" fill-opacity=".72"/>
</svg>
