<svg width="30" height="30" viewBox="0 0 30 30" fill="none" xmlns="http://www.w3.org/2000/svg">
    <g clip-path="url(#c6hl5b5zoa)" fill="#B7B7B7">
        <path d="M15 6.563A8.437 8.437 0 1 0 23.438 15 8.45 8.45 0 0 0 15 6.562zm0 14.062a5.625 5.625 0 1 1 0-11.25 5.625 5.625 0 0 1 0 11.25zM13.594 3.281V1.406a1.406 1.406 0 1 1 2.812 0v1.875a1.406 1.406 0 1 1-2.812 0zm8.695 4.43a1.405 1.405 0 0 1 0-1.992l1.324-1.324a1.409 1.409 0 0 1 1.992 1.992L24.281 7.71a1.405 1.405 0 0 1-.996.41 1.43 1.43 0 0 1-.996-.41zM30 15a1.407 1.407 0 0 1-1.406 1.406h-1.875a1.406 1.406 0 1 1 0-2.812h1.875A1.406 1.406 0 0 1 30 15zm-4.395 8.613a1.406 1.406 0 0 1 0 1.992 1.36 1.36 0 0 1-.996.41 1.405 1.405 0 0 1-.996-.41l-1.324-1.324a1.408 1.408 0 1 1 1.992-1.992l1.325 1.324zm-9.199 3.106v1.875a1.406 1.406 0 1 1-2.812 0v-1.875a1.406 1.406 0 1 1 2.812 0zm-8.695-4.43a1.405 1.405 0 0 1 0 1.992l-1.324 1.325a1.408 1.408 0 0 1-.996.41 1.358 1.358 0 0 1-.996-.41 1.407 1.407 0 0 1 0-1.993l1.324-1.324a1.405 1.405 0 0 1 1.992 0zm-4.43-5.883H1.406a1.406 1.406 0 1 1 0-2.812h1.875a1.406 1.406 0 1 1 0 2.812zm1.114-10.02a1.409 1.409 0 0 1 1.992-1.991L7.71 5.719a1.406 1.406 0 0 1-.996 2.402 1.406 1.406 0 0 1-.996-.41L4.395 6.387z"/>
        <circle cx="15" cy="14.883" r="6.445"/>
    </g>
    <defs>
        <clipPath id="c6hl5b5zoa">
            <path fill="#fff" d="M0 0h30v30H0z"/>
        </clipPath>
    </defs>
</svg>
